<svg xmlns="http://www.w3.org/2000/svg" viewBox="0 0 445.66 64" width="445.66" height="64" role="img" aria-label="Foothills Labs"><title>Foothills Labs</title><g transform="translate(0 0)"><g fill="none" stroke="#F3DC7C" stroke-width="2.35" stroke-linecap="round" stroke-linejoin="round"><path d="M 10.23 5.69 C 10.52 5.38 11.73 5.98 12.47 6 C 13.21 6.02 13.93 5.88 14.66 5.8 C 15.38 5.72 16.11 5.63 16.84 5.53 C 17.56 5.43 18.28 5.32 19.01 5.2 C 19.73 5.08 20.45 4.95 21.18 4.83 C 21.9 4.7 22.62 4.57 23.34 4.44 C 24.06 4.32 24.79 4.19 25.51 4.07 C 26.23 3.96 26.96 3.85 27.68 3.74 C 28.41 3.64 29.13 3.55 29.86 3.46 C 30.59 3.38 31.32 3.3 32.04 3.23 C 32.77 3.16 33.5 3.09 34.23 3.03 C 34.96 2.96 35.69 2.9 36.42 2.84 C 37.15 2.77 37.87 2.7 38.6 2.63 C 39.33 2.55 40.06 2.47 40.78 2.39 C 41.51 2.3 42.24 2.21 42.96 2.11 C 43.69 2.01 44.37 1.89 45.14 1.79 C 45.9 1.69 47.08 1.18 47.55 1.53 C 48.03 1.89 47.87 3.18 47.99 3.94 C 48.11 4.71 48.19 5.4 48.28 6.13 C 48.36 6.86 48.44 7.6 48.5 8.33 C 48.57 9.06 48.62 9.8 48.66 10.53 C 48.71 11.27 48.74 12.01 48.76 12.74 C 48.79 13.48 48.8 14.22 48.82 14.96 C 48.84 15.69 48.85 16.43 48.86 17.17 C 48.88 17.91 48.9 18.65 48.93 19.38 C 48.96 20.12 48.99 20.86 49.04 21.59 C 49.08 22.33 49.14 23.06 49.21 23.8 C 49.27 24.53 49.35 25.26 49.44 25.99 C 49.53 26.72 49.63 27.45 49.73 28.18 C 49.83 28.91 49.94 29.64 50.04 30.37 C 50.15 31.1 50.26 31.83 50.36 32.56 C 50.47 33.28 50.57 34.01 50.66 34.74 C 50.76 35.47 50.85 36.2 50.93 36.94 C 51.01 37.67 51.08 38.4 51.15 39.13 C 51.22 39.87 51.29 40.6 51.35 41.33 C 51.42 42.06 51.47 42.8 51.54 43.53 C 51.61 44.27 51.67 45 51.75 45.73 C 51.82 46.46 51.9 47.19 51.99 47.92 C 52.08 48.66 52.18 49.39 52.29 50.11 C 52.39 50.84 52.51 51.57 52.63 52.3 C 52.75 53.03 52.89 53.75 53.01 54.48 C 53.14 55.2 53.3 55.88 53.41 56.66 C 53.52 57.44 54.05 58.66 53.69 59.16 C 53.32 59.66 51.99 59.53 51.22 59.65 C 50.44 59.78 49.77 59.84 49.04 59.91 C 48.31 59.99 47.58 60.05 46.85 60.1 C 46.12 60.16 45.39 60.19 44.66 60.23 C 43.93 60.27 43.19 60.29 42.46 60.32 C 41.73 60.34 40.99 60.36 40.26 60.39 C 39.53 60.42 38.79 60.44 38.06 60.48 C 37.33 60.52 36.6 60.56 35.87 60.61 C 35.14 60.66 34.41 60.72 33.68 60.79 C 32.95 60.85 32.22 60.93 31.5 61.01 C 30.77 61.09 30.04 61.18 29.32 61.27 C 28.59 61.36 27.86 61.45 27.14 61.54 C 26.41 61.62 25.68 61.71 24.96 61.79 C 24.23 61.86 23.5 61.94 22.77 62.01 C 22.04 62.07 21.31 62.13 20.58 62.18 C 19.85 62.24 19.08 62.27 18.39 62.33 C 17.7 62.38 16.77 62.82 16.44 62.53 C 16.11 62.23 16.45 61.24 16.42 60.54 C 16.39 59.85 16.31 59.08 16.24 58.34 C 16.17 57.61 16.1 56.88 16.01 56.15 C 15.92 55.42 15.82 54.69 15.71 53.96 C 15.6 53.23 15.47 52.5 15.34 51.78 C 15.22 51.05 15.08 50.33 14.94 49.6 C 14.8 48.87 14.66 48.15 14.52 47.42 C 14.39 46.7 14.25 45.97 14.12 45.24 C 14 44.52 13.88 43.79 13.77 43.06 C 13.66 42.33 13.57 41.6 13.48 40.87 C 13.39 40.14 13.32 39.41 13.25 38.68 C 13.19 37.94 13.13 37.21 13.08 36.47 C 13.02 35.74 12.98 35 12.93 34.27 C 12.88 33.53 12.84 32.8 12.79 32.06 C 12.74 31.33 12.69 30.59 12.63 29.86 C 12.57 29.13 12.5 28.39 12.43 27.66 C 12.36 26.93 12.28 26.2 12.2 25.47 C 12.11 24.73 12.02 24 11.93 23.27 C 11.84 22.54 11.75 21.81 11.66 21.08 C 11.57 20.35 11.48 19.62 11.4 18.89 C 11.33 18.16 11.25 17.42 11.19 16.69 C 11.12 15.96 11.07 15.22 11.02 14.49 C 10.97 13.75 10.94 13.02 10.91 12.28 C 10.87 11.54 10.85 10.81 10.83 10.07 C 10.8 9.33 10.86 8.59 10.76 7.85 C 10.66 7.13 9.95 6 10.23 5.69 Z"/><path d="M 28.79 3.74 C 28.82 4.22 28.95 5.65 29.01 6.6 C 29.06 7.56 29.03 8.52 29.12 9.48 C 29.2 10.43 29.45 11.37 29.54 12.32 C 29.62 13.27 29.48 14.25 29.61 15.2 C 29.74 16.15 30.07 17.07 30.32 18.01 C 30.57 18.95 30.99 19.86 31.11 20.81 C 31.24 21.76 31.03 22.75 31.05 23.71 C 31.07 24.67 31.15 25.62 31.22 26.57 C 31.29 27.53 31.46 28.47 31.47 29.44 C 31.48 30.4 31.21 31.39 31.27 32.34 C 31.33 33.3 31.59 34.23 31.82 35.17 C 32.05 36.11 32.5 37.02 32.67 37.97 C 32.85 38.91 32.75 39.88 32.85 40.83 C 32.95 41.79 33.14 42.73 33.26 43.68 C 33.38 44.63 33.58 45.57 33.57 46.53 C 33.56 47.49 33.22 48.49 33.21 49.46 C 33.19 50.42 33.32 51.37 33.48 52.31 C 33.65 53.26 34.02 54.18 34.17 55.13 C 34.33 56.07 34.31 57.04 34.41 57.99 C 34.52 58.94 34.73 60.36 34.79 60.83"/><path d="M 28.94 5.17 C 28.76 5.62 28.37 7.06 27.89 7.88 C 27.4 8.71 26.66 9.38 26.04 10.12 C 25.42 10.87 24.68 11.54 24.19 12.36 C 23.71 13.19 23.55 14.21 23.13 15.07 C 22.72 15.94 22.2 16.75 21.71 17.57 C 21.21 18.39 20.7 19.19 20.15 19.98 C 19.6 20.77 18.93 21.48 18.42 22.29 C 17.9 23.1 17.46 23.94 17.07 24.83 C 16.69 25.71 16.58 26.76 16.1 27.59 C 15.63 28.42 14.52 29.44 14.21 29.81"/><path d="M 28.94 5.17 C 29.21 5.57 29.89 6.89 30.56 7.58 C 31.23 8.27 32.21 8.66 32.94 9.29 C 33.67 9.92 34.31 10.63 34.94 11.34 C 35.57 12.06 36.13 12.85 36.74 13.59 C 37.34 14.34 37.92 15.1 38.56 15.81 C 39.2 16.53 39.86 17.23 40.58 17.86 C 41.31 18.49 42.28 18.89 42.93 19.6 C 43.57 20.31 43.91 21.29 44.46 22.1 C 45 22.9 45.51 23.73 46.18 24.41 C 46.85 25.1 48.08 25.91 48.47 26.2"/><path d="M 28.94 5.17 C 28.87 5.66 28.65 7.13 28.56 8.11 C 28.46 9.1 28.47 10.1 28.37 11.09 C 28.27 12.07 28.21 13.06 27.95 14.02 C 27.69 14.99 27.06 15.89 26.8 16.85 C 26.54 17.81 26.5 18.81 26.38 19.79 C 26.27 20.77 26.23 21.77 26.1 22.75 C 25.97 23.73 25.65 24.68 25.59 25.67 C 25.53 26.67 25.79 27.71 25.74 28.7 C 25.69 29.69 25.53 30.67 25.29 31.63 C 25.05 32.6 24.53 33.52 24.3 34.49 C 24.07 35.45 24.09 36.45 23.91 37.43 C 23.72 38.4 23.39 39.35 23.19 40.32 C 22.99 41.29 22.74 42.25 22.7 43.25 C 22.66 44.24 22.99 45.3 22.95 46.29 C 22.91 47.28 22.65 48.25 22.47 49.22 C 22.28 50.19 22.02 51.15 21.85 52.13 C 21.68 53.1 21.69 54.1 21.45 55.07 C 21.21 56.03 20.59 56.94 20.41 57.91 C 20.22 58.88 20.37 60.41 20.36 60.91"/><path d="M 28.94 5.17 C 29.06 5.65 29.33 7.13 29.66 8.07 C 29.99 9 30.55 9.85 30.91 10.77 C 31.27 11.69 31.42 12.69 31.83 13.59 C 32.24 14.5 32.9 15.31 33.37 16.18 C 33.85 17.06 34.37 17.92 34.68 18.86 C 34.99 19.8 34.97 20.87 35.23 21.83 C 35.49 22.79 35.94 23.67 36.25 24.61 C 36.57 25.55 36.85 26.51 37.13 27.46 C 37.41 28.41 37.53 29.42 37.94 30.32 C 38.35 31.23 39.12 31.99 39.6 32.87 C 40.08 33.74 40.48 34.65 40.83 35.58 C 41.17 36.5 41.34 37.5 41.68 38.43 C 42.02 39.36 42.57 40.21 42.86 41.15 C 43.15 42.1 43.2 43.14 43.42 44.12 C 43.65 45.09 43.83 46.08 44.22 46.99 C 44.61 47.9 45.33 48.68 45.77 49.57 C 46.21 50.47 46.47 51.43 46.85 52.34 C 47.24 53.25 47.74 54.12 48.08 55.05 C 48.43 55.98 48.77 57.43 48.91 57.91"/></g></g><g fill="#FAF6ED" transform="translate(85.51 48.65)"><path d="M5.64 0V-18.5H0.49V-24.27H5.64V-25.58Q5.64 -28.43 6.77 -30.26Q7.91 -32.09 10.01 -32.97Q12.11 -33.86 14.93 -33.86Q15.92 -33.86 17.1 -33.76Q18.28 -33.65 19.41 -33.48Q20.54 -33.3 21.43 -33.05V-28.09H18.4Q15.98 -28.09 15.06 -27.53Q14.13 -26.97 14.13 -25.57V-24.27H21.43V-18.5H14.13V0Z M39.85 0.55Q35.01 0.55 31.41 -0.86Q27.81 -2.28 25.83 -5.09Q23.85 -7.91 23.85 -12.14Q23.85 -16.4 25.83 -19.22Q27.81 -22.04 31.41 -23.43Q35.01 -24.82 39.85 -24.82Q44.7 -24.82 48.3 -23.43Q51.89 -22.04 53.88 -19.22Q55.86 -16.4 55.86 -12.14Q55.86 -7.91 53.88 -5.09Q51.89 -2.28 48.3 -0.86Q44.7 0.55 39.85 0.55ZM39.85 -5.22Q42.25 -5.22 43.87 -6.03Q45.48 -6.85 46.28 -8.3Q47.08 -9.76 47.08 -11.68V-12.6Q47.08 -14.55 46.28 -15.99Q45.48 -17.44 43.87 -18.24Q42.25 -19.05 39.85 -19.05Q37.45 -19.05 35.84 -18.24Q34.23 -17.44 33.43 -15.99Q32.62 -14.55 32.62 -12.6V-11.68Q32.62 -9.76 33.43 -8.3Q34.23 -6.85 35.84 -6.03Q37.45 -5.22 39.85 -5.22Z M75.96 0.55Q71.12 0.55 67.52 -0.86Q63.92 -2.28 61.94 -5.09Q59.96 -7.91 59.96 -12.14Q59.96 -16.4 61.94 -19.22Q63.92 -22.04 67.52 -23.43Q71.12 -24.82 75.96 -24.82Q80.81 -24.82 84.41 -23.43Q88 -22.04 89.99 -19.22Q91.97 -16.4 91.97 -12.14Q91.97 -7.91 89.99 -5.09Q88 -2.28 84.41 -0.86Q80.81 0.55 75.96 0.55ZM75.96 -5.22Q78.36 -5.22 79.98 -6.03Q81.59 -6.85 82.39 -8.3Q83.19 -9.76 83.19 -11.68V-12.6Q83.19 -14.55 82.39 -15.99Q81.59 -17.44 79.98 -18.24Q78.36 -19.05 75.96 -19.05Q73.56 -19.05 71.95 -18.24Q70.34 -17.44 69.54 -15.99Q68.73 -14.55 68.73 -12.6V-11.68Q68.73 -9.76 69.54 -8.3Q70.34 -6.85 71.95 -6.03Q73.56 -5.22 75.96 -5.22Z M109.24 0.55Q106.22 0.55 104.17 -0.13Q102.11 -0.82 101.07 -2.52Q100.02 -4.22 100.02 -7.26V-18.5H95.27V-24.27H100.33L102.02 -31.5H108.52V-24.27H115.3V-18.5H108.52V-8.82Q108.52 -7.07 109.25 -6.14Q109.98 -5.22 112.27 -5.22H115.3V-0.28Q114.65 -0.05 113.53 0.15Q112.4 0.34 111.24 0.45Q110.07 0.55 109.24 0.55Z M120.34 0V-33.33H128.83V-21.21H129.18Q130.44 -22.55 131.98 -23.34Q133.51 -24.13 135.21 -24.47Q136.91 -24.82 138.59 -24.82Q142.12 -24.82 144.47 -23.7Q146.82 -22.58 148.01 -20.32Q149.2 -18.05 149.2 -14.65V0H140.7V-13.47Q140.7 -14.71 140.35 -15.66Q140 -16.62 139.34 -17.24Q138.67 -17.86 137.69 -18.17Q136.71 -18.48 135.43 -18.48Q133.61 -18.48 132.11 -17.74Q130.62 -17 129.73 -15.69Q128.83 -14.38 128.83 -12.66V0Z M155.25 -27.62V-33.33H163.75V-27.62ZM155.25 0V-24.27H163.75V0Z M169.93 0V-33.33H178.42V0Z M184.6 0V-33.33H193.1V0Z M212.53 0.55Q209.81 0.55 207.21 0.12Q204.61 -0.32 202.53 -1.21Q200.44 -2.09 199.19 -3.52Q197.95 -4.95 197.95 -6.96Q197.95 -7.14 197.96 -7.31Q197.97 -7.48 198.02 -7.66H206.75Q206.73 -7.54 206.72 -7.42Q206.71 -7.29 206.71 -7.2Q206.73 -6.25 207.55 -5.66Q208.36 -5.07 209.69 -4.8Q211.01 -4.52 212.55 -4.52Q213.87 -4.52 215.32 -4.67Q216.76 -4.81 217.75 -5.27Q218.74 -5.74 218.74 -6.74Q218.74 -7.76 217.43 -8.19Q216.13 -8.62 213.92 -8.85Q211.72 -9.09 208.98 -9.45Q206.92 -9.75 205.08 -10.24Q203.25 -10.74 201.82 -11.57Q200.39 -12.4 199.57 -13.71Q198.75 -15.03 198.75 -16.94Q198.75 -19.15 199.83 -20.65Q200.91 -22.15 202.84 -23.07Q204.77 -23.99 207.35 -24.41Q209.93 -24.82 212.92 -24.82Q215.54 -24.82 217.96 -24.42Q220.38 -24.02 222.28 -23.17Q224.19 -22.32 225.31 -21.01Q226.42 -19.7 226.42 -17.89Q226.42 -17.73 226.42 -17.55Q226.42 -17.36 226.38 -17.23H217.69V-17.51Q217.69 -18.3 216.98 -18.78Q216.26 -19.27 215.16 -19.51Q214.06 -19.74 212.83 -19.74Q212.35 -19.74 211.42 -19.71Q210.49 -19.68 209.52 -19.51Q208.56 -19.34 207.89 -18.96Q207.22 -18.59 207.22 -17.89Q207.22 -17.02 208.36 -16.63Q209.49 -16.24 211.34 -16.05Q213.19 -15.86 215.36 -15.61Q217.58 -15.36 219.71 -14.96Q221.84 -14.56 223.53 -13.74Q225.22 -12.92 226.21 -11.5Q227.21 -10.08 227.21 -7.8Q227.21 -5.42 226.11 -3.8Q225.02 -2.19 223.04 -1.23Q221.07 -0.28 218.38 0.14Q215.7 0.55 212.53 0.55Z M246.29 0V-33.33H254.78V0Z M270.39 0.55Q268.13 0.55 266.18 0.22Q264.23 -0.11 262.77 -0.92Q261.32 -1.72 260.51 -3.12Q259.71 -4.51 259.71 -6.65Q259.71 -9.57 261.28 -11.24Q262.85 -12.91 265.74 -13.68Q268.64 -14.46 272.57 -14.66Q276.5 -14.87 281.23 -14.87V-15.61Q281.23 -17 280.53 -17.83Q279.84 -18.67 278.47 -19.03Q277.11 -19.4 275.06 -19.4Q273.59 -19.4 272.23 -19.18Q270.86 -18.97 269.99 -18.48Q269.11 -17.99 269.11 -17.14V-16.79H260.52Q260.47 -16.97 260.46 -17.12Q260.45 -17.26 260.45 -17.47Q260.45 -19.63 262.15 -21.29Q263.85 -22.95 267.21 -23.88Q270.57 -24.82 275.52 -24.82Q280.09 -24.82 283.27 -24.02Q286.44 -23.23 288.08 -21.46Q289.73 -19.69 289.73 -16.71V-7.01Q289.73 -6.21 290.08 -5.72Q290.44 -5.22 291.24 -5.22H293.69V-0.3Q293.03 -0.05 291.61 0.25Q290.19 0.55 288.57 0.55Q286.29 0.55 284.93 0.08Q283.56 -0.39 282.89 -1.18Q282.22 -1.98 281.94 -2.94H281.57Q280.26 -1.87 278.55 -1.07Q276.85 -0.27 274.8 0.14Q272.76 0.55 270.39 0.55ZM272.78 -4.84Q273.82 -4.84 275.24 -5.08Q276.66 -5.31 278.04 -5.82Q279.42 -6.33 280.32 -7.14Q281.23 -7.94 281.23 -9.11V-10.5Q276.7 -10.5 273.8 -10.13Q270.89 -9.76 269.51 -9.01Q268.13 -8.26 268.13 -7.04Q268.13 -6.1 268.81 -5.63Q269.49 -5.16 270.57 -5Q271.64 -4.84 272.78 -4.84Z M314.34 0.55Q311.54 0.55 309.07 -0.41Q306.59 -1.38 304.79 -3.79H304.4L303.72 0H296.84V-33.33H305.34V-21.41H305.71Q306.75 -22.61 308.2 -23.36Q309.65 -24.12 311.3 -24.47Q312.94 -24.82 314.53 -24.82Q318.14 -24.82 320.97 -23.45Q323.8 -22.08 325.44 -19.28Q327.08 -16.47 327.08 -12.12Q327.08 -7.82 325.43 -5Q323.77 -2.18 320.9 -0.82Q318.03 0.55 314.34 0.55ZM311.88 -5.78Q314.05 -5.78 315.51 -6.53Q316.98 -7.27 317.71 -8.62Q318.45 -9.97 318.45 -11.75V-12.52Q318.45 -14.3 317.71 -15.62Q316.98 -16.95 315.53 -17.72Q314.09 -18.48 311.92 -18.48Q310.27 -18.48 309.04 -18.03Q307.8 -17.57 306.96 -16.76Q306.12 -15.95 305.71 -14.81Q305.29 -13.68 305.29 -12.28V-11.96Q305.29 -10.14 306.02 -8.74Q306.76 -7.34 308.23 -6.56Q309.71 -5.78 311.88 -5.78Z M345.47 0.55Q342.75 0.55 340.15 0.12Q337.55 -0.32 335.47 -1.21Q333.38 -2.09 332.13 -3.52Q330.89 -4.95 330.89 -6.96Q330.89 -7.14 330.9 -7.31Q330.91 -7.48 330.96 -7.66H339.69Q339.67 -7.54 339.66 -7.42Q339.65 -7.29 339.65 -7.2Q339.67 -6.25 340.49 -5.66Q341.3 -5.07 342.63 -4.8Q343.95 -4.52 345.49 -4.52Q346.81 -4.52 348.26 -4.67Q349.7 -4.81 350.69 -5.27Q351.68 -5.74 351.68 -6.74Q351.68 -7.76 350.37 -8.19Q349.07 -8.62 346.86 -8.85Q344.66 -9.09 341.92 -9.45Q339.86 -9.75 338.02 -10.24Q336.19 -10.74 334.76 -11.57Q333.33 -12.4 332.51 -13.71Q331.69 -15.03 331.69 -16.94Q331.69 -19.15 332.77 -20.65Q333.85 -22.15 335.78 -23.07Q337.71 -23.99 340.29 -24.41Q342.87 -24.82 345.86 -24.82Q348.48 -24.82 350.9 -24.42Q353.32 -24.02 355.22 -23.17Q357.13 -22.32 358.25 -21.01Q359.36 -19.7 359.36 -17.89Q359.36 -17.73 359.36 -17.55Q359.36 -17.36 359.32 -17.23H350.63V-17.51Q350.63 -18.3 349.92 -18.78Q349.2 -19.27 348.1 -19.51Q347 -19.74 345.77 -19.74Q345.29 -19.74 344.36 -19.71Q343.43 -19.68 342.46 -19.51Q341.5 -19.34 340.83 -18.96Q340.16 -18.59 340.16 -17.89Q340.16 -17.02 341.3 -16.63Q342.43 -16.24 344.28 -16.05Q346.13 -15.86 348.3 -15.61Q350.52 -15.36 352.65 -14.96Q354.78 -14.56 356.47 -13.74Q358.16 -12.92 359.15 -11.5Q360.15 -10.08 360.15 -7.8Q360.15 -5.42 359.05 -3.8Q357.96 -2.19 355.98 -1.23Q354.01 -0.28 351.32 0.14Q348.64 0.55 345.47 0.55Z"/></g></svg>
