<svg xmlns="http://www.w3.org/2000/svg" viewBox="0 0 100 100" width="100" height="100" fill="none" stroke="currentColor" stroke-width="2.6" stroke-linejoin="round" stroke-linecap="round"><path d="M54.52 67.12C55.61 67.18 56.72 67.19 57.81 67.12C58.9 67.04 60.01 66.91 61.08 66.68C62.15 66.45 63.22 66.14 64.23 65.73C65.24 65.31 66.24 64.8 67.14 64.2C68.05 63.59 68.92 62.88 69.67 62.09C70.43 61.3 71.11 60.41 71.67 59.47C72.22 58.53 72.67 57.5 72.98 56.46C73.29 55.42 73.48 54.3 73.54 53.22C73.59 52.13 73.51 51.01 73.31 49.93C73.12 48.86 72.78 47.79 72.36 46.78C71.94 45.78 71.39 44.8 70.78 43.89C70.17 42.99 69.45 42.13 68.69 41.35C67.94 40.56 67.1 39.83 66.23 39.16C65.36 38.49 64.44 37.88 63.5 37.32C62.55 36.76 61.57 36.25 60.58 35.78C59.59 35.32 58.57 34.9 57.54 34.51C56.51 34.12 55.47 33.77 54.42 33.45C53.36 33.13 52.3 32.85 51.23 32.59C50.16 32.33 49.09 32.1 48.01 31.92C46.92 31.74 45.83 31.58 44.73 31.51C43.64 31.44 42.53 31.42 41.44 31.49C40.35 31.56 39.24 31.7 38.17 31.94C37.11 32.17 36.04 32.5 35.03 32.92C34.03 33.35 33.04 33.87 32.13 34.48C31.23 35.1 30.37 35.82 29.62 36.61C28.87 37.4 28.19 38.29 27.64 39.24C27.09 40.18 26.65 41.21 26.34 42.26C26.03 43.3 25.85 44.41 25.8 45.5C25.74 46.59 25.82 47.71 26.01 48.79C26.2 49.86 26.53 50.93 26.94 51.94C27.35 52.95 27.89 53.93 28.49 54.85C29.09 55.76 29.8 56.62 30.54 57.42C31.29 58.22 32.13 58.96 32.99 59.63C33.85 60.31 34.78 60.92 35.72 61.48C36.66 62.04 37.64 62.55 38.64 63.01C39.63 63.48 40.65 63.89 41.68 64.28C42.71 64.66 43.76 65 44.81 65.31C45.87 65.62 46.93 65.89 48 66.14C49.07 66.38 50.15 66.61 51.24 66.77C52.32 66.93 53.42 67.07 54.52 67.12Z"/><path d="M57.25 61.67C58.05 61.75 58.88 61.77 59.68 61.69C60.49 61.62 61.3 61.47 62.07 61.22C62.84 60.98 63.6 60.64 64.29 60.21C64.97 59.79 65.62 59.26 66.16 58.67C66.71 58.08 67.19 57.38 67.53 56.66C67.88 55.94 68.13 55.13 68.25 54.34C68.37 53.54 68.36 52.7 68.25 51.91C68.13 51.11 67.88 50.31 67.55 49.57C67.23 48.84 66.78 48.13 66.27 47.5C65.77 46.87 65.18 46.29 64.55 45.78C63.92 45.27 63.23 44.83 62.52 44.44C61.81 44.05 61.05 43.73 60.3 43.43C59.54 43.13 58.76 42.9 57.98 42.66C57.21 42.42 56.41 42.22 55.64 41.98C54.87 41.73 54.09 41.48 53.34 41.17C52.58 40.87 51.85 40.51 51.12 40.16C50.39 39.8 49.68 39.4 48.95 39.04C48.22 38.69 47.48 38.33 46.73 38.03C45.97 37.73 45.2 37.45 44.42 37.25C43.63 37.05 42.82 36.9 42.02 36.83C41.21 36.76 40.38 36.75 39.58 36.84C38.78 36.93 37.96 37.09 37.2 37.36C36.44 37.62 35.68 37.97 35.01 38.41C34.33 38.85 33.69 39.39 33.15 39.99C32.62 40.59 32.15 41.29 31.8 42.01C31.46 42.73 31.21 43.54 31.09 44.33C30.97 45.13 30.97 45.97 31.07 46.77C31.18 47.56 31.41 48.37 31.72 49.11C32.04 49.85 32.47 50.57 32.95 51.21C33.43 51.86 34.01 52.45 34.62 52.98C35.23 53.51 35.92 53.98 36.62 54.38C37.32 54.79 38.06 55.13 38.82 55.43C39.57 55.73 40.35 55.96 41.13 56.2C41.91 56.43 42.71 56.6 43.49 56.81C44.28 57.03 45.07 57.23 45.84 57.48C46.61 57.74 47.37 58.04 48.12 58.36C48.86 58.68 49.59 59.06 50.32 59.4C51.06 59.74 51.79 60.11 52.55 60.41C53.3 60.71 54.07 60.99 54.85 61.2C55.64 61.41 56.44 61.58 57.25 61.67Z"/><path d="M58.72 57.47C58.95 57.52 59.19 57.56 59.43 57.58C59.67 57.6 59.91 57.61 60.16 57.6C60.4 57.58 60.64 57.56 60.87 57.51C61.11 57.46 61.35 57.4 61.57 57.32C61.8 57.24 62.02 57.14 62.23 57.02C62.44 56.91 62.65 56.77 62.84 56.62C63.03 56.47 63.2 56.31 63.36 56.13C63.52 55.95 63.67 55.75 63.8 55.55C63.92 55.34 64.03 55.12 64.12 54.9C64.2 54.67 64.27 54.44 64.31 54.2C64.35 53.96 64.37 53.72 64.37 53.48C64.37 53.24 64.34 53 64.3 52.76C64.25 52.52 64.18 52.29 64.1 52.06C64.01 51.84 63.91 51.62 63.78 51.41C63.66 51.21 63.52 51.01 63.36 50.82C63.21 50.64 63.04 50.46 62.86 50.3C62.68 50.14 62.49 50 62.28 49.86C62.08 49.73 61.87 49.61 61.65 49.51C61.43 49.41 61.21 49.32 60.98 49.24C60.75 49.17 60.51 49.11 60.28 49.07C60.04 49.02 59.8 48.99 59.56 48.98C59.32 48.96 59.07 48.96 58.83 48.98C58.59 48.99 58.35 49.02 58.12 49.06C57.88 49.11 57.64 49.17 57.41 49.24C57.18 49.32 56.96 49.41 56.74 49.51C56.53 49.62 56.31 49.74 56.12 49.88C55.92 50.02 55.73 50.18 55.56 50.35C55.4 50.52 55.24 50.71 55.11 50.91C54.98 51.11 54.86 51.33 54.78 51.55C54.69 51.78 54.63 52.02 54.6 52.25C54.57 52.49 54.56 52.74 54.57 52.98C54.59 53.22 54.63 53.46 54.68 53.69C54.74 53.92 54.82 54.15 54.92 54.37C55.02 54.6 55.13 54.81 55.26 55.02C55.38 55.22 55.53 55.42 55.68 55.6C55.84 55.79 56 55.96 56.18 56.13C56.36 56.29 56.55 56.44 56.74 56.58C56.94 56.72 57.15 56.85 57.36 56.96C57.58 57.07 57.8 57.17 58.02 57.26C58.25 57.34 58.48 57.41 58.72 57.47Z"/><path d="M39.18 49.94C39.43 49.99 39.69 50.03 39.95 50.05C40.2 50.07 40.46 50.08 40.72 50.07C40.97 50.06 41.23 50.03 41.48 49.99C41.74 49.95 41.99 49.89 42.24 49.81C42.48 49.74 42.72 49.65 42.96 49.54C43.19 49.43 43.42 49.31 43.63 49.17C43.84 49.03 44.05 48.87 44.24 48.69C44.42 48.52 44.6 48.32 44.74 48.11C44.89 47.9 45.02 47.68 45.12 47.44C45.22 47.21 45.3 46.95 45.34 46.7C45.39 46.45 45.4 46.19 45.4 45.94C45.39 45.68 45.35 45.42 45.3 45.17C45.24 44.92 45.16 44.67 45.07 44.44C44.97 44.2 44.86 43.97 44.73 43.75C44.6 43.52 44.45 43.31 44.29 43.11C44.13 42.91 43.96 42.72 43.77 42.54C43.59 42.36 43.39 42.19 43.18 42.04C42.98 41.89 42.76 41.75 42.54 41.62C42.31 41.5 42.08 41.38 41.84 41.29C41.6 41.19 41.36 41.11 41.11 41.05C40.86 40.98 40.61 40.93 40.35 40.9C40.1 40.87 39.84 40.86 39.58 40.86C39.32 40.87 39.07 40.89 38.81 40.94C38.56 40.98 38.31 41.04 38.06 41.12C37.82 41.2 37.58 41.3 37.35 41.41C37.13 41.53 36.9 41.67 36.7 41.82C36.49 41.97 36.3 42.15 36.12 42.33C35.95 42.52 35.78 42.72 35.64 42.94C35.51 43.15 35.38 43.38 35.28 43.62C35.19 43.85 35.11 44.1 35.06 44.35C35 44.6 34.97 44.86 34.97 45.12C34.96 45.37 34.98 45.64 35.02 45.89C35.06 46.14 35.13 46.39 35.21 46.63C35.3 46.88 35.4 47.11 35.53 47.34C35.65 47.56 35.79 47.78 35.95 47.98C36.11 48.18 36.29 48.37 36.47 48.55C36.66 48.73 36.86 48.89 37.07 49.04C37.28 49.18 37.5 49.31 37.73 49.43C37.96 49.55 38.2 49.65 38.44 49.73C38.68 49.82 38.93 49.89 39.18 49.94Z"/><circle cx="38.56" cy="44.72" r="2.7" fill="currentColor" stroke="none"/><circle cx="61.0" cy="53.96" r="2.7" fill="currentColor" stroke="none"/></svg>