<svg xmlns="http://www.w3.org/2000/svg" viewBox="0 0 512 512" role="img" aria-label="glider — Foothills Labs model glyph">
  <path d="M 234.78 83.22 C 237.86 82.82 241.97 91.14 245.69 94.98 C 249.40 98.81 253.27 102.48 257.05 106.24 C 260.84 109.99 264.60 113.78 268.42 117.50 C 272.24 121.22 276.05 124.91 280.00 128.54 C 283.94 132.17 287.67 136.19 292.06 139.28 C 296.46 142.38 301.56 144.61 306.35 147.12 C 311.15 149.64 315.97 152.01 320.82 154.39 C 325.67 156.77 330.59 159.04 335.47 161.38 C 340.35 163.71 345.26 165.99 350.10 168.38 C 354.94 170.78 359.78 173.18 364.52 175.74 C 369.26 178.29 373.95 180.92 378.54 183.70 C 383.13 186.48 387.65 189.40 392.08 192.43 C 396.51 195.47 400.84 198.66 405.13 201.92 C 409.42 205.18 413.62 208.59 417.81 212.01 C 422.00 215.42 426.12 218.94 430.28 222.41 C 434.44 225.87 438.57 229.39 442.76 232.80 C 446.96 236.21 451.16 239.60 455.45 242.87 C 459.73 246.14 464.18 249.45 468.45 252.43 C 472.73 255.41 478.31 257.04 481.10 260.75 C 483.89 264.46 483.71 269.93 485.21 274.72 C 486.72 279.52 488.47 284.58 490.11 289.51 C 491.74 294.44 493.42 299.49 495.01 304.30 C 496.60 309.11 500.79 314.63 499.65 318.36 C 498.52 322.09 492.04 323.91 488.22 326.67 C 484.41 329.42 481.22 333.81 476.77 334.89 C 472.32 335.96 466.73 333.70 461.52 333.11 C 456.31 332.52 450.84 331.89 445.50 331.35 C 440.16 330.81 434.82 330.26 429.47 329.86 C 424.12 329.46 418.77 329.13 413.41 328.96 C 408.06 328.79 402.70 328.74 397.33 328.84 C 391.96 328.94 386.59 329.20 381.21 329.55 C 375.84 329.90 370.46 330.41 365.07 330.94 C 359.69 331.46 354.30 332.11 348.92 332.69 C 343.53 333.27 337.60 334.11 332.76 334.42 C 327.93 334.73 321.71 332.48 319.91 334.55 C 318.12 336.63 321.71 342.23 322.00 346.88 C 322.29 351.53 321.92 357.27 321.68 362.45 C 321.44 367.64 321.03 372.81 320.55 377.99 C 320.08 383.16 319.45 388.33 318.84 393.50 C 318.22 398.67 317.58 403.63 316.86 409.00 C 316.14 414.38 317.96 421.78 314.51 425.76 C 311.05 429.74 302.13 430.54 296.14 432.90 C 290.15 435.26 284.63 439.21 278.58 439.92 C 272.54 440.62 266.19 438.07 259.88 437.15 C 253.57 436.22 244.79 437.42 240.70 434.36 C 236.61 431.30 236.99 423.86 235.34 418.77 C 233.69 413.69 232.23 408.87 230.81 403.88 C 229.38 398.89 228.03 393.87 226.80 388.82 C 225.56 383.78 224.44 378.69 223.41 373.59 C 222.37 368.48 221.70 363.64 220.56 358.19 C 219.42 352.74 220.26 343.38 216.56 340.90 C 212.86 338.41 204.03 342.38 198.35 343.28 C 192.67 344.18 187.73 345.16 182.48 346.28 C 177.22 347.39 171.99 348.60 166.81 349.97 C 161.63 351.35 156.49 352.88 151.40 354.54 C 146.30 356.21 141.25 358.05 136.23 359.98 C 131.21 361.90 126.24 363.99 121.26 366.09 C 116.29 368.18 111.36 370.40 106.40 372.56 C 101.45 374.71 96.51 376.92 91.53 379.01 C 86.56 381.11 81.72 383.16 76.56 385.11 C 71.41 387.07 65.72 390.77 60.62 390.72 C 55.52 390.67 50.86 387.02 45.96 384.82 C 41.06 382.62 33.52 381.59 31.19 377.54 C 28.86 373.49 31.66 365.95 31.99 360.53 C 32.32 355.10 32.82 350.17 33.17 344.99 C 33.52 339.81 33.83 334.72 34.07 329.44 C 34.32 324.16 32.74 318.10 34.65 313.30 C 36.56 308.50 42.00 304.83 45.53 300.65 C 49.06 296.47 52.42 292.38 55.85 288.23 C 59.28 284.08 62.65 279.88 66.11 275.76 C 69.56 271.63 73.01 267.50 76.56 263.47 C 80.12 259.44 83.72 255.46 87.44 251.59 C 91.16 247.72 94.97 243.93 98.89 240.24 C 102.80 236.56 106.84 232.99 110.94 229.47 C 115.03 225.96 119.25 222.56 123.47 219.17 C 127.70 215.77 132.02 212.47 136.28 209.12 C 140.55 205.76 144.86 202.45 149.07 199.05 C 153.28 195.64 157.48 192.23 161.56 188.69 C 165.63 185.16 169.64 181.56 173.53 177.84 C 177.41 174.13 181.13 170.38 184.87 166.40 C 188.61 162.43 192.78 158.48 195.98 154.00 C 199.19 149.53 201.47 144.32 204.08 139.55 C 206.69 134.78 209.11 130.11 211.65 125.40 C 214.18 120.69 216.69 115.96 219.29 111.29 C 221.88 106.62 224.65 102.06 227.23 97.38 C 229.82 92.70 231.71 83.62 234.78 83.22 Z" fill="#E7A63E" stroke="none" transform="translate(0 0)"/>
  <path d="M 234.78 83.22 C 237.86 82.82 241.97 91.14 245.69 94.98 C 249.40 98.81 253.27 102.48 257.05 106.24 C 260.84 109.99 264.60 113.78 268.42 117.50 C 272.24 121.22 276.05 124.91 280.00 128.54 C 283.94 132.17 287.67 136.19 292.06 139.28 C 296.46 142.38 301.56 144.61 306.35 147.12 C 311.15 149.64 315.97 152.01 320.82 154.39 C 325.67 156.77 330.59 159.04 335.47 161.38 C 340.35 163.71 345.26 165.99 350.10 168.38 C 354.94 170.78 359.78 173.18 364.52 175.74 C 369.26 178.29 373.95 180.92 378.54 183.70 C 383.13 186.48 387.65 189.40 392.08 192.43 C 396.51 195.47 400.84 198.66 405.13 201.92 C 409.42 205.18 413.62 208.59 417.81 212.01 C 422.00 215.42 426.12 218.94 430.28 222.41 C 434.44 225.87 438.57 229.39 442.76 232.80 C 446.96 236.21 451.16 239.60 455.45 242.87 C 459.73 246.14 464.18 249.45 468.45 252.43 C 472.73 255.41 478.31 257.04 481.10 260.75 C 483.89 264.46 483.71 269.93 485.21 274.72 C 486.72 279.52 488.47 284.58 490.11 289.51 C 491.74 294.44 493.42 299.49 495.01 304.30 C 496.60 309.11 500.79 314.63 499.65 318.36 C 498.52 322.09 492.04 323.91 488.22 326.67 C 484.41 329.42 481.22 333.81 476.77 334.89 C 472.32 335.96 466.73 333.70 461.52 333.11 C 456.31 332.52 450.84 331.89 445.50 331.35 C 440.16 330.81 434.82 330.26 429.47 329.86 C 424.12 329.46 418.77 329.13 413.41 328.96 C 408.06 328.79 402.70 328.74 397.33 328.84 C 391.96 328.94 386.59 329.20 381.21 329.55 C 375.84 329.90 370.46 330.41 365.07 330.94 C 359.69 331.46 354.30 332.11 348.92 332.69 C 343.53 333.27 337.60 334.11 332.76 334.42 C 327.93 334.73 321.71 332.48 319.91 334.55 C 318.12 336.63 321.71 342.23 322.00 346.88 C 322.29 351.53 321.92 357.27 321.68 362.45 C 321.44 367.64 321.03 372.81 320.55 377.99 C 320.08 383.16 319.45 388.33 318.84 393.50 C 318.22 398.67 317.58 403.63 316.86 409.00 C 316.14 414.38 317.96 421.78 314.51 425.76 C 311.05 429.74 302.13 430.54 296.14 432.90 C 290.15 435.26 284.63 439.21 278.58 439.92 C 272.54 440.62 266.19 438.07 259.88 437.15 C 253.57 436.22 244.79 437.42 240.70 434.36 C 236.61 431.30 236.99 423.86 235.34 418.77 C 233.69 413.69 232.23 408.87 230.81 403.88 C 229.38 398.89 228.03 393.87 226.80 388.82 C 225.56 383.78 224.44 378.69 223.41 373.59 C 222.37 368.48 221.70 363.64 220.56 358.19 C 219.42 352.74 220.26 343.38 216.56 340.90 C 212.86 338.41 204.03 342.38 198.35 343.28 C 192.67 344.18 187.73 345.16 182.48 346.28 C 177.22 347.39 171.99 348.60 166.81 349.97 C 161.63 351.35 156.49 352.88 151.40 354.54 C 146.30 356.21 141.25 358.05 136.23 359.98 C 131.21 361.90 126.24 363.99 121.26 366.09 C 116.29 368.18 111.36 370.40 106.40 372.56 C 101.45 374.71 96.51 376.92 91.53 379.01 C 86.56 381.11 81.72 383.16 76.56 385.11 C 71.41 387.07 65.72 390.77 60.62 390.72 C 55.52 390.67 50.86 387.02 45.96 384.82 C 41.06 382.62 33.52 381.59 31.19 377.54 C 28.86 373.49 31.66 365.95 31.99 360.53 C 32.32 355.10 32.82 350.17 33.17 344.99 C 33.52 339.81 33.83 334.72 34.07 329.44 C 34.32 324.16 32.74 318.10 34.65 313.30 C 36.56 308.50 42.00 304.83 45.53 300.65 C 49.06 296.47 52.42 292.38 55.85 288.23 C 59.28 284.08 62.65 279.88 66.11 275.76 C 69.56 271.63 73.01 267.50 76.56 263.47 C 80.12 259.44 83.72 255.46 87.44 251.59 C 91.16 247.72 94.97 243.93 98.89 240.24 C 102.80 236.56 106.84 232.99 110.94 229.47 C 115.03 225.96 119.25 222.56 123.47 219.17 C 127.70 215.77 132.02 212.47 136.28 209.12 C 140.55 205.76 144.86 202.45 149.07 199.05 C 153.28 195.64 157.48 192.23 161.56 188.69 C 165.63 185.16 169.64 181.56 173.53 177.84 C 177.41 174.13 181.13 170.38 184.87 166.40 C 188.61 162.43 192.78 158.48 195.98 154.00 C 199.19 149.53 201.47 144.32 204.08 139.55 C 206.69 134.78 209.11 130.11 211.65 125.40 C 214.18 120.69 216.69 115.96 219.29 111.29 C 221.88 106.62 224.65 102.06 227.23 97.38 C 229.82 92.70 231.71 83.62 234.78 83.22 Z" fill="none" stroke="#26292B" stroke-width="30.0" stroke-linecap="round" stroke-linejoin="round"/>
  <path d="M 234.78 83.22 C 235.56 86.66 238.34 96.94 239.41 103.89 C 240.47 110.84 240.38 117.93 241.17 124.91 C 241.97 131.90 243.51 138.79 244.18 145.79 C 244.84 152.79 245.16 159.83 245.15 166.91 C 245.13 173.99 243.29 181.30 244.08 188.28 C 244.87 195.26 248.44 201.90 249.91 208.81 C 251.37 215.71 251.64 222.75 252.86 229.68 C 254.08 236.61 255.95 243.46 257.23 250.39 C 258.52 257.31 260.37 264.16 260.57 271.22 C 260.77 278.27 258.22 285.67 258.42 292.72 C 258.63 299.78 260.88 306.58 261.80 313.55 C 262.72 320.52 262.88 327.58 263.93 334.53 C 264.98 341.48 266.37 348.39 268.10 355.26 C 269.83 362.12 273.39 368.77 274.31 375.73 C 275.23 382.70 273.37 390.01 273.62 397.06 C 273.87 404.11 274.68 411.09 275.80 418.03 C 276.93 424.97 279.60 435.27 280.36 438.71" fill="none" stroke="#26292B" stroke-width="18.6" stroke-linecap="round" stroke-linejoin="round"/>
</svg>
